<?xml version="1.0" standalone="no"?>
<!DOCTYPE svg PUBLIC "-//W3C//DTD SVG 20010904//EN"
 "http://www.w3.org/TR/2001/REC-SVG-20010904/DTD/svg10.dtd">
<svg version="1.0" xmlns="http://www.w3.org/2000/svg"
 width="439.000000pt" height="438.000000pt" viewBox="0 0 439.000000 438.000000"
 preserveAspectRatio="xMidYMid meet">

<g transform="translate(0.000000,438.000000) scale(0.100000,-0.100000)"
fill="#000000" stroke="none">
<path d="M1678 3130 c-82 -15 -152 -38 -220 -75 -37 -19 -73 -35 -81 -35 -16
0 -27 -21 -27 -50 0 -19 62 -80 82 -80 7 0 312 -126 324 -134 1 -1 5 -17 8
-36 5 -22 4 -30 -2 -22 -6 9 -19 -22 -41 -100 -56 -195 -45 -178 -118 -178
-93 0 -207 -26 -299 -69 -151 -71 -151 -132 0 -208 67 -34 69 -36 46 -45 -39
-15 -293 -88 -295 -86 0 2 -18 37 -38 79 -75 155 -245 260 -380 235 -37 -7
-127 -62 -127 -77 0 -6 15 1 33 15 41 31 99 56 129 55 22 0 22 -1 3 -9 -18 -8
-17 -9 8 -9 44 -1 31 -18 -20 -25 -27 -4 -70 -14 -98 -24 -27 -9 -53 -15 -57
-14 -19 5 -68 -132 -68 -189 0 -22 -8 -30 -39 -42 -22 -9 -42 -21 -46 -27 -12
-19 5 -47 40 -65 29 -17 34 -25 40 -69 10 -71 31 -112 68 -129 40 -18 223 -51
237 -42 5 3 10 -1 10 -9 0 -9 4 -16 9 -16 21 0 41 13 41 26 0 8 10 14 26 14
14 0 23 -4 19 -10 -3 -5 -2 -10 4 -10 5 0 13 5 16 10 10 16 52 12 59 -6 4 -9
2 -13 -5 -8 -7 4 -9 0 -5 -14 4 -11 2 -23 -4 -27 -6 -4 -9 -1 -8 7 5 20 -41
22 -63 2 -38 -35 -15 -104 35 -104 35 0 53 29 60 94 4 33 8 62 10 64 2 2 59 6
127 9 108 5 122 4 116 -10 -13 -35 43 -50 94 -25 25 13 100 22 281 37 135 11
255 24 265 29 10 5 44 13 75 16 54 7 57 6 60 -16 4 -30 57 -39 64 -11 7 25 43
39 131 52 125 19 148 11 66 -23 l-47 -20 128 -43 c71 -23 130 -44 133 -46 2
-2 -4 -20 -12 -40 -21 -50 -19 -103 6 -153 26 -55 72 -84 133 -84 55 0 78 10
127 57 l36 34 41 -17 42 -16 0 -57 c0 -68 23 -116 71 -149 49 -34 134 -28 186
14 93 74 109 208 34 283 -23 23 -20 25 59 36 70 10 187 43 231 65 69 36 57 48
-108 110 -46 18 -83 34 -83 36 0 3 20 33 44 68 33 45 42 66 35 76 -6 10 -12
11 -16 5 -5 -6 -23 -32 -41 -58 -18 -26 -34 -47 -36 -47 -2 0 3 27 11 59 12
48 20 60 39 65 23 6 23 6 6 42 -17 38 -27 39 -99 18 -13 -3 -23 -2 -23 4 0 5
20 15 45 22 25 7 45 14 45 15 0 17 -15 32 -28 30 -9 -1 -11 0 -4 2 6 3 12 8
12 12 0 13 -22 71 -26 71 -3 0 -46 -20 -97 -44 -109 -52 -265 -108 -278 -100
-5 3 -9 13 -9 23 0 18 92 66 225 119 28 11 71 29 97 40 l46 21 -8 38 c-14 67
-19 143 -10 143 5 0 14 -34 21 -75 6 -42 16 -78 21 -81 4 -3 24 4 42 16 37 22
36 13 22 125 -7 53 11 42 19 -11 11 -78 13 -80 56 -38 27 26 39 47 39 66 0 15
5 28 10 28 6 0 10 -6 10 -13 0 -9 10 -12 31 -9 31 5 31 4 24 -29 -4 -19 -16
-40 -26 -47 -20 -14 -16 -41 19 -107 23 -45 78 -105 97 -105 7 0 24 -56 44
-146 41 -183 91 -364 101 -364 21 0 19 172 -6 443 -4 47 -3 77 3 77 13 0 49
75 64 134 11 46 11 49 -12 67 -18 14 -21 21 -11 27 17 11 2 23 -58 45 l-45 17
-64 328 c-67 339 -86 416 -103 406 -10 -7 -12 7 37 -403 20 -162 34 -296 32
-298 -2 -2 -30 8 -61 22 -32 14 -62 23 -67 20 -5 -4 -9 -1 -9 4 0 11 -190 111
-210 111 -6 0 -10 -26 -10 -60 0 -38 -4 -60 -11 -60 -8 0 -10 21 -7 69 l5 69
-59 28 c-33 16 -55 30 -49 32 6 2 11 11 11 19 0 12 -8 14 -39 9 -45 -7 -13
-19 -560 218 -399 173 -425 185 -403 186 8 0 12 6 9 13 -2 8 -26 12 -68 13
-35 0 -104 3 -154 7 -49 3 -111 2 -137 -3z m-243 -131 c4 -6 22 -8 44 -5 29 5
47 -1 96 -29 71 -41 68 -44 -9 -10 -31 14 -71 25 -89 25 -18 0 -41 7 -51 15
-11 8 -15 15 -9 15 7 0 15 -5 18 -11z m768 -97 c13 -27 13 -32 2 -17 -8 11
-22 28 -30 38 -11 12 -11 17 -2 17 6 0 20 -17 30 -38z m-116 -137 c-28 -85
-53 -152 -55 -150 -2 2 5 32 16 67 11 35 32 104 48 155 15 51 30 90 35 88 4
-3 -16 -75 -44 -160z m218 -25 c43 -66 83 -120 89 -120 6 0 28 5 49 11 22 6
41 9 43 6 2 -2 -21 -11 -51 -19 l-55 -15 -72 115 c-94 149 -90 142 -84 142 2
0 39 -54 81 -120z m-431 -88 c15 -101 25 -186 23 -188 -2 -3 -16 71 -31 163
-15 92 -30 182 -33 198 -4 20 -2 27 4 20 6 -5 23 -93 37 -193z m1665 -75 c35
-158 35 -157 18 -157 -8 0 -21 54 -41 168 -45 272 -41 270 23 -11z m-1559 203
c8 -5 11 -10 5 -10 -5 0 -17 5 -25 10 -8 5 -10 10 -5 10 6 0 17 -5 25 -10z
m-203 -42 c-3 -8 -6 -5 -6 6 -1 11 2 17 5 13 3 -3 4 -12 1 -19z m62 -30 c4
-13 16 -86 25 -163 9 -77 19 -152 21 -167 3 -16 3 -28 1 -28 -2 0 -24 11 -47
25 -24 13 -63 27 -86 31 -24 3 -43 7 -43 9 0 2 72 252 86 298 8 24 33 21 43
-5z m276 4 c-3 -3 -11 0 -18 7 -9 10 -8 11 6 5 10 -3 15 -9 12 -12z m-142 -51
c26 -11 47 -27 47 -35 0 -8 3 -23 6 -33 4 -14 4 -15 -4 -4 -8 10 -11 6 -17
-17 -3 -18 -3 -37 1 -43 4 -7 3 -9 -3 -6 -13 8 -37 -79 -27 -96 4 -7 3 -8 -2
-4 -5 5 -16 -14 -26 -45 -14 -46 -16 -49 -18 -23 -2 30 -2 30 -11 5 -6 -18 -7
-9 -4 30 3 42 2 49 -5 30 -8 -20 -9 -17 -5 17 3 23 -2 90 -10 149 -8 59 -15
109 -15 110 0 4 27 -6 93 -35z m803 0 c-11 -20 -16 -60 -17 -123 l-2 -93 -9
93 c-8 79 -7 97 7 118 14 22 14 24 -2 25 -12 1 -10 3 7 8 33 10 34 8 16 -28z
m-1019 -3 c-3 -8 -6 -5 -6 6 -1 11 2 17 5 13 3 -3 4 -12 1 -19z m870 16 c-3
-3 -12 -4 -19 -1 -8 3 -5 6 6 6 11 1 17 -2 13 -5z m-84 -24 c-35 -14 -28 -18
25 -13 l47 4 -25 -20 c-14 -11 -37 -25 -52 -30 -24 -9 -26 -7 -30 25 -4 33 3
41 42 42 8 0 5 -3 -7 -8z m-796 -42 c-3 -7 -5 -2 -5 12 0 14 2 19 5 13 2 -7 2
-19 0 -25z m489 -61 c137 -59 170 -77 172 -94 3 -18 -3 -23 -33 -29 -37 -7
-84 -2 -119 12 -16 6 -18 4 -13 -9 4 -9 10 -24 13 -32 4 -9 1 -15 -8 -15 -7 0
-49 48 -93 108 -43 59 -83 113 -88 120 -5 6 -7 12 -5 12 3 0 81 -33 174 -73z
m480 -204 c-3 -3 -43 34 -89 83 -153 164 -171 190 -38 56 73 -74 130 -136 127
-139z m-289 210 c-3 -10 -5 -2 -5 17 0 19 2 27 5 18 2 -10 2 -26 0 -35z m-282
-76 c53 -72 71 -103 62 -109 -7 -5 -13 -1 -16 10 -14 67 -104 46 -106 -25 0
-28 -25 -46 -25 -18 0 9 -5 25 -10 36 -9 16 -15 17 -31 8 -12 -6 -22 -9 -24
-7 -8 7 58 217 67 212 4 -3 42 -51 83 -107z m-418 61 c-3 -8 -6 -5 -6 6 -1 11
2 17 5 13 3 -3 4 -12 1 -19z m1359 -53 c-15 -19 -32 -35 -37 -35 -6 0 4 18 21
40 39 50 54 45 16 -5z m-1369 13 c-3 -8 -6 -5 -6 6 -1 11 2 17 5 13 3 -3 4
-12 1 -19z m720 -100 c-2 -18 -4 -4 -4 32 0 36 2 50 4 33 2 -18 2 -48 0 -65z
m-737 35 c-11 -17 -11 -17 -6 0 3 10 7 26 7 35 1 15 2 15 6 0 2 -10 -1 -25 -7
-35z m1740 3 c0 -3 -4 -8 -10 -11 -5 -3 -10 -1 -10 4 0 6 5 11 10 11 6 0 10
-2 10 -4z m-923 -23 c-8 -13 -67 -15 -67 -3 0 7 12 9 30 6 18 -2 30 0 30 7 0
5 3 8 6 4 3 -3 4 -9 1 -14z m269 -43 c20 -17 17 -30 -6 -30 -17 0 -20 6 -19
48 1 27 4 36 6 20 2 -14 11 -32 19 -38z m-376 30 c0 -5 -19 -9 -42 -9 l-43 2
40 7 c22 4 41 8 43 9 1 0 2 -3 2 -9z m1108 -25 c32 -15 44 -28 52 -55 14 -48
14 -46 -25 -76 -44 -33 -59 -24 -81 53 -15 51 -12 108 4 101 4 -2 26 -12 50
-23z m-1344 -16 c-3 -5 -16 -9 -30 -9 -33 0 -24 15 10 16 14 1 23 -2 20 -7z
m1475 -45 c-18 -19 -38 -34 -45 -34 -14 0 -24 22 -24 53 0 20 4 22 51 18 l51
-3 -33 -34z m-1202 -11 c-3 -10 -5 -2 -5 17 0 19 2 27 5 18 2 -10 2 -26 0 -35z
m-743 -13 c21 -4 46 -15 54 -24 14 -14 14 -17 -2 -35 -24 -27 -91 -41 -193
-41 -135 0 -208 29 -170 67 36 36 216 56 311 33z m-823 -151 c26 -26 59 -70
74 -100 l27 -53 -23 17 c-41 30 -112 58 -171 70 l-58 11 0 78 0 79 52 -28 c29
-15 73 -49 99 -74z m2758 -168 c6 -58 11 -127 10 -155 l0 -51 -25 69 c-23 68
-67 253 -77 331 l-6 40 15 -27 c21 -39 33 -35 41 15 7 41 7 41 19 -38 7 -44
18 -127 23 -184z m-2106 40 l25 -10 -26 -93 c-14 -51 -26 -94 -26 -95 -1 -1
-31 -6 -66 -11 l-65 -10 65 -2 c36 -1 61 -3 55 -6 -21 -8 -267 -32 -285 -27
-11 3 -27 0 -35 -7 -21 -17 -20 7 5 117 30 128 30 128 108 140 89 13 215 15
245 4z m1215 -9 c3 -11 -38 -25 -113 -38 -55 -9 -36 9 35 34 60 21 72 22 78 4z
m30 -55 c8 -10 7 -27 -5 -66 -17 -52 -17 -52 -53 -47 -31 5 -32 4 -10 -5 33
-13 32 -13 19 -43 -10 -21 -17 -25 -38 -20 -21 4 -23 3 -9 -5 10 -7 14 -19 11
-31 -6 -23 -8 -23 -32 -11 -38 21 13 219 60 232 37 11 46 10 57 -4z m374 -19
c-4 -17 -2 -20 13 -15 12 5 16 3 12 -5 -2 -7 -12 -39 -21 -70 -9 -32 -21 -58
-26 -58 -6 0 -10 5 -10 11 0 5 -4 8 -9 5 -10 -7 -101 23 -101 32 0 4 11 25 24
47 l25 40 22 -53 c12 -29 24 -51 26 -49 2 2 -6 25 -17 51 -11 26 -20 50 -20
52 0 6 62 33 77 34 7 0 9 -9 5 -22z m-655 6 c-3 -3 -12 -4 -19 -1 -8 3 -5 6 6
6 11 1 17 -2 13 -5z m173 -8 c0 -7 -7 -33 -15 -56 -8 -23 -15 -58 -15 -78 0
-34 0 -35 -36 -29 -56 9 -65 22 -62 85 4 66 27 86 29 25 1 -38 1 -38 8 -7 4
17 11 36 15 42 3 6 -2 13 -11 15 -10 2 2 3 27 1 33 -3 40 -1 25 5 -18 9 -17
10 8 10 17 1 27 -4 27 -13z m-213 -2 c-3 -3 -12 -4 -19 -1 -8 3 -5 6 6 6 11 1
17 -2 13 -5z m-50 -10 c-3 -3 -12 -4 -19 -1 -8 3 -5 6 6 6 11 1 17 -2 13 -5z
m123 -62 c0 -33 5 -63 13 -71 10 -10 5 -12 -23 -9 -29 2 -38 9 -52 38 -27 58
-27 83 2 91 57 16 60 13 60 -49z m324 50 c3 -5 -1 -9 -9 -9 -8 0 -12 4 -9 9 3
4 7 8 9 8 2 0 6 -4 9 -8z m139 -29 c-15 -23 -18 -24 -21 -9 -2 10 2 22 10 27
24 16 29 9 11 -18z m-846 -9 c-3 -3 -12 -4 -19 -1 -8 3 -5 6 6 6 11 1 17 -2
13 -5z m-277 -18 c6 -8 18 -12 26 -9 8 3 14 1 14 -4 0 -10 -359 -48 -382 -41
-7 3 34 10 92 16 l105 11 -103 -5 c-101 -5 -103 -5 -92 15 9 18 22 21 128 24
64 1 136 4 158 5 26 1 46 -3 54 -12z m217 8 c-3 -3 -12 -4 -19 -1 -8 3 -5 6 6
6 11 1 17 -2 13 -5z m302 -84 c83 -78 93 -91 81 -105 -12 -14 -23 -7 -101 71
-48 48 -87 92 -86 98 1 6 -6 10 -15 10 -10 -1 -18 2 -18 7 0 5 10 9 23 9 14
-1 57 -34 116 -90z m471 84 c0 -8 -19 -13 -24 -6 -3 5 1 9 9 9 8 0 15 -2 15
-3z m60 0 c0 -8 -19 -13 -24 -6 -3 5 1 9 9 9 8 0 15 -2 15 -3z m-893 -10 c-3
-3 -12 -4 -19 -1 -8 3 -5 6 6 6 11 1 17 -2 13 -5z m940 -136 c-3 -21 0 -25 9
-17 25 21 174 -14 174 -41 0 -22 -54 -43 -120 -48 -59 -4 -70 -2 -70 11 0 10
11 17 32 19 17 2 33 9 36 16 3 10 -6 12 -34 10 -31 -2 -40 -8 -46 -28 -4 -14
-5 -2 -2 28 6 52 6 52 -23 53 -27 0 -27 1 -5 9 20 8 22 14 16 48 -4 25 -1 48
7 63 13 23 14 21 21 -36 5 -33 7 -72 5 -87z m-1000 126 c-3 -3 -12 -4 -19 -1
-8 3 -5 6 6 6 11 1 17 -2 13 -5z m897 -36 c-3 -5 -10 -5 -16 -2 -7 5 -9 1 -5
-9 9 -23 0 -22 -12 1 -8 15 -6 18 14 18 13 0 21 -4 19 -8z m35 -10 c-5 -10
-11 -18 -12 -18 -2 0 -3 8 -3 18 0 10 6 19 13 19 8 0 9 -6 2 -19z m-1749 5
c-1 -31 -58 -51 -148 -52 -59 -1 -30 23 49 41 88 19 99 20 99 11z m-200 -47
c0 -14 -51 -26 -177 -42 -29 -4 -53 -10 -53 -13 0 -4 -29 -3 -65 3 -63 9 -72
24 -15 27 14 0 20 3 13 5 -6 3 -34 1 -61 -4 -37 -7 -56 -5 -73 4 -21 12 -6 13
106 12 80 0 133 -5 137 -11 4 -8 13 -6 25 5 10 9 41 18 68 21 28 2 60 4 73 5
13 1 22 -4 22 -12z m1907 -2 c-3 -3 -12 -4 -19 -1 -8 3 -5 6 6 6 11 1 17 -2
13 -5z m-50 -10 c-3 -3 -12 -4 -19 -1 -8 3 -5 6 6 6 11 1 17 -2 13 -5z m-54
-11 c-7 -2 -19 -2 -25 0 -7 3 -2 5 12 5 14 0 19 -2 13 -5z m144 -120 c-10 -9
-79 27 -75 39 2 7 20 21 39 31 l34 17 3 -41 c2 -23 1 -43 -1 -46z m-330 51
c-3 -3 -12 -4 -19 -1 -8 3 -5 6 6 6 11 1 17 -2 13 -5z m87 -25 c87 -102 -51
-259 -152 -174 -54 45 -51 126 6 176 l27 24 -21 -25 c-72 -84 -38 -190 61
-190 14 0 39 13 57 30 l33 29 -49 -24 c-54 -27 -80 -26 -108 7 -18 20 -24 72
-12 102 9 23 63 29 117 12 34 -10 47 -11 47 -3 0 20 -14 35 -45 51 -26 14 -27
16 -8 16 12 0 33 -14 47 -31z m-1769 -39 c0 -8 -8 -16 -17 -18 -13 -2 -18 3
-18 18 0 15 5 20 18 18 9 -2 17 -10 17 -18z m1845 -87 c-11 -17 -11 -17 -6 0
3 10 7 37 8 60 l1 42 4 -42 c2 -24 -1 -51 -7 -60z m228 -55 c1 12 7 22 13 22
21 0 49 -21 49 -36 0 -11 6 -14 16 -10 23 9 48 -57 33 -87 -33 -63 -92 -90
-148 -67 -30 12 -62 63 -60 97 0 10 5 2 11 -17 13 -47 34 -68 73 -76 39 -7 89
16 106 48 11 20 9 20 -20 -5 -59 -50 -129 -33 -145 36 -8 32 3 34 44 10 24
-14 31 -14 44 -4 33 28 9 69 -31 54 -11 -4 -14 -3 -9 5 4 7 2 12 -3 12 -15 0
-14 60 2 93 11 25 12 23 18 -36 3 -34 6 -52 7 -39z m-113 72 l47 0 -23 -20
-24 -20 29 -24 c16 -13 25 -29 22 -35 -4 -6 -2 -11 5 -11 7 0 10 -2 7 -5 -10
-10 -162 63 -164 79 -2 18 11 22 21 6 3 -5 0 -10 -7 -10 -7 -1 18 -14 56 -31
38 -16 71 -28 73 -26 2 3 -27 24 -64 48 -37 23 -70 44 -72 45 -1 2 0 7 4 13 4
8 12 8 25 1 10 -5 40 -10 65 -10z m285 -84 c0 -12 -5 -7 -19 24 -11 24 -11 24
3 6 9 -11 16 -24 16 -30z m-420 21 c0 -2 -12 -14 -27 -28 l-28 -24 24 28 c23
25 31 32 31 24z m427 -89 c-2 -13 -4 -5 -4 17 -1 22 1 32 4 23 2 -10 2 -28 0
-40z m-177 18 c-4 -4 -16 -4 -26 2 -16 9 -14 10 8 9 15 -1 23 -6 18 -11z m157
-83 c-8 -15 -28 -39 -43 -53 -27 -23 -26 -23 3 12 17 20 34 46 38 58 4 12 9
19 12 17 2 -3 -2 -18 -10 -34z"/>
<path d="M1525 2251 c-10 -17 39 -35 69 -25 14 5 27 14 29 19 3 14 -89 19 -98
6z"/>
<path d="M2621 1884 c0 -11 3 -14 6 -6 3 7 2 16 -1 19 -3 4 -6 -2 -5 -13z"/>
<path d="M2542 1578 c-15 -15 -16 -45 -2 -53 6 -3 19 -3 30 0 24 8 27 50 4 59
-20 8 -18 8 -32 -6z m30 -23 c0 -5 -5 -11 -11 -13 -6 -2 -11 4 -11 13 0 9 5
15 11 13 6 -2 11 -8 11 -13z"/>
<path d="M3360 2290 c0 -8 -18 -28 -40 -43 l-39 -28 23 -62 c17 -47 28 -63 45
-65 16 -3 20 -8 16 -21 -6 -20 3 -51 14 -51 4 0 14 11 21 25 9 16 28 29 54 36
36 10 38 12 21 22 -11 6 -26 18 -32 26 -11 14 -13 13 -19 -6 -4 -14 -14 -23
-25 -23 -25 0 -24 15 1 40 19 19 20 22 3 53 -9 17 -22 50 -29 72 -7 22 -13 33
-14 25z"/>
<path d="M3737 2253 c-4 -22 -17 -60 -30 -86 -27 -53 -25 -54 54 -31 65 19 75
28 82 74 5 34 3 36 -41 55 -26 11 -49 21 -53 23 -3 1 -9 -14 -12 -35z"/>
<path d="M3865 2250 c-3 -5 -1 -10 4 -10 6 0 11 5 11 10 0 6 -2 10 -4 10 -3 0
-8 -4 -11 -10z"/>
<path d="M3860 2205 c0 -15 4 -24 10 -20 6 3 10 12 10 20 0 8 -4 17 -10 20 -6
4 -10 -5 -10 -20z"/>
<path d="M3222 2182 c-45 -29 -45 -29 -11 -110 l19 -44 42 24 c24 14 42 29 41
34 -1 5 -13 35 -26 66 l-23 56 -42 -26z"/>
<path d="M3270 2021 c-14 -4 -25 -11 -25 -16 0 -16 45 -95 53 -95 5 0 23 21
41 46 23 33 29 49 21 58 -11 14 -51 17 -90 7z"/>
</g>
</svg>
